# Blender v2.91.2 OBJ File: 'fern.blend'
# www.blender.org
o Cube
v -0.137113 -0.034938 -0.108240
v 0.137041 -0.034938 -0.108240
v -0.003981 0.538902 -0.893909
v -0.150323 0.284417 -0.251853
v 0.150251 0.284417 -0.251853
v 0.117957 0.496510 -0.545823
v -0.118029 0.496510 -0.545823
v 0.065275 -0.024318 -0.134890
v -0.044694 -0.024318 0.094025
v 0.695440 0.522186 0.304428
v 0.190488 0.271513 -0.088314
v 0.069922 0.271513 0.162661
v 0.328336 0.467982 0.253613
v 0.422995 0.467982 0.056569
v 0.022930 -0.028036 0.103584
v -0.114542 -0.028036 -0.067847
v -0.534453 0.431498 0.413764
v -0.060249 0.227938 0.183857
v -0.210968 0.227938 -0.004094
v -0.378596 0.397937 0.163507
v -0.260264 0.397937 0.311071
v -0.059693 -0.019647 0.092452
v 0.096030 -0.019647 -0.107383
v -0.626505 0.218356 -0.505107
v -0.231824 0.197099 -0.026207
v -0.061094 0.197099 -0.245299
v -0.315498 0.283506 -0.405711
v -0.449540 0.283506 -0.233698
v 0.102180 -0.025150 -0.031738
v -0.111764 -0.025150 0.008173
v 0.128958 0.180671 0.687300
v 0.145368 0.161044 0.142590
v -0.089193 0.161044 0.186347
v -0.016846 0.235272 0.434372
v 0.167312 0.235272 0.400017
v -0.033283 -0.031068 -0.099226
v 0.145465 -0.031068 0.038724
v 0.481618 0.178209 -0.586793
v 0.071750 0.162102 -0.253128
v 0.267723 0.162102 -0.101884
v 0.409624 0.239112 -0.329284
v 0.255763 0.239112 -0.448028
v -0.117402 -0.050144 -0.021632
v 0.066635 -0.050144 -0.081392
v -0.207849 0.061456 -0.602896
v -0.170482 0.076712 -0.154911
v 0.031290 0.076712 -0.220430
v -0.050302 0.116420 -0.397897
v -0.208716 0.116420 -0.346457
v -0.035759 -0.050144 0.061168
v -0.088841 -0.050144 -0.124905
v -0.619908 0.061456 0.130587
v -0.170867 0.076712 0.109406
v -0.229063 0.076712 -0.094598
v -0.409359 0.116420 -0.019462
v -0.363667 0.116420 0.140705
v 0.041552 -0.050144 -0.124339
v 0.047731 -0.050144 0.069059
v 0.625024 0.061456 -0.049439
v 0.184339 0.076712 -0.138229
v 0.191113 0.076712 0.073806
v 0.384277 0.116420 0.044830
v 0.378958 0.116420 -0.121642
v -0.000258 0.035998 -0.178846
v -0.000258 0.293862 -0.294807
v -0.000258 0.465117 -0.532173
v 0.049902 0.019765 -0.001557
v 0.154326 0.277382 0.048608
v 0.368079 0.448473 0.151294
v -0.035126 0.012412 -0.048771
v -0.172237 0.192928 -0.155615
v -0.368839 0.264893 -0.308818
v 0.004133 -0.002334 0.035368
v 0.032459 0.158076 0.187212
v 0.073076 0.222025 0.404940
v -0.090313 0.029426 0.053789
v -0.162640 0.235589 0.111789
v -0.310692 0.372507 0.230512
v 0.105244 0.007313 -0.094289
v 0.193371 0.157109 -0.208479
v 0.319737 0.216826 -0.372217
v -0.137113 -0.034938 -0.108240
v 0.137041 -0.034938 -0.108240
v -0.003981 0.538902 -0.893909
v -0.150323 0.284417 -0.251853
v 0.150251 0.284417 -0.251853
v 0.117957 0.496510 -0.545823
v -0.118029 0.496510 -0.545823
v 0.065275 -0.024318 -0.134890
v -0.044694 -0.024318 0.094025
v 0.695440 0.522186 0.304428
v 0.190488 0.271513 -0.088314
v 0.069922 0.271513 0.162661
v 0.328336 0.467982 0.253613
v 0.422995 0.467982 0.056569
v 0.022930 -0.028036 0.103584
v -0.114542 -0.028036 -0.067847
v -0.534453 0.431498 0.413764
v -0.060249 0.227938 0.183857
v -0.210968 0.227938 -0.004094
v -0.378596 0.397937 0.163507
v -0.260264 0.397937 0.311071
v -0.059693 -0.019647 0.092452
v 0.096030 -0.019647 -0.107383
v -0.626505 0.218356 -0.505107
v -0.231824 0.197099 -0.026207
v -0.061094 0.197099 -0.245299
v -0.315498 0.283506 -0.405711
v -0.449540 0.283506 -0.233698
v 0.102180 -0.025150 -0.031738
v -0.111764 -0.025150 0.008173
v 0.128958 0.180671 0.687300
v 0.145368 0.161044 0.142590
v -0.089193 0.161044 0.186347
v -0.016846 0.235272 0.434372
v 0.167312 0.235272 0.400017
v -0.033283 -0.031068 -0.099226
v 0.145465 -0.031068 0.038724
v 0.481618 0.178209 -0.586793
v 0.071750 0.162102 -0.253128
v 0.267723 0.162102 -0.101884
v 0.409624 0.239112 -0.329284
v 0.255763 0.239112 -0.448028
v -0.117402 -0.050144 -0.021632
v 0.066635 -0.050144 -0.081392
v -0.207849 0.061456 -0.602896
v -0.170482 0.076712 -0.154911
v 0.031290 0.076712 -0.220430
v -0.050302 0.116420 -0.397897
v -0.208716 0.116420 -0.346457
v -0.035759 -0.050144 0.061168
v -0.088841 -0.050144 -0.124905
v -0.619908 0.061456 0.130587
v -0.170867 0.076712 0.109406
v -0.229063 0.076712 -0.094598
v -0.409359 0.116420 -0.019462
v -0.363667 0.116420 0.140705
v 0.041552 -0.050144 -0.124339
v 0.047731 -0.050144 0.069059
v 0.625024 0.061456 -0.049439
v 0.184339 0.076712 -0.138229
v 0.191113 0.076712 0.073806
v 0.384277 0.116420 0.044830
v 0.378958 0.116420 -0.121642
v -0.000258 0.035998 -0.178846
v -0.000258 0.293862 -0.294807
v -0.000258 0.465117 -0.532173
v 0.049902 0.019765 -0.001557
v 0.154326 0.277382 0.048608
v 0.368079 0.448473 0.151294
v -0.035126 0.012412 -0.048771
v -0.172237 0.192928 -0.155615
v -0.368839 0.264893 -0.308818
v 0.004133 -0.002334 0.035368
v 0.032459 0.158076 0.187212
v 0.073076 0.222025 0.404940
v -0.090313 0.029426 0.053789
v -0.162640 0.235589 0.111789
v -0.310692 0.372507 0.230512
v 0.105244 0.007313 -0.094289
v 0.193371 0.157109 -0.208479
v 0.319737 0.216826 -0.372217
v -0.059910 0.060641 -0.106886
v 0.039455 0.060641 0.007603
v 0.193873 0.259411 -0.229671
v -0.027129 0.171261 -0.145009
v 0.081812 0.171261 -0.019487
v 0.147010 0.244728 -0.099718
v 0.061478 0.244728 -0.198267
v 0.008162 0.085212 -0.065765
v 0.038498 0.174533 -0.092093
v 0.100593 0.233854 -0.145986
v -0.047126 0.030238 0.051767
v 0.021048 0.030238 -0.117599
v -0.318065 0.269624 -0.152866
v -0.105988 0.163462 0.037556
v -0.031244 0.163462 -0.148130
v -0.153037 0.251940 -0.173973
v -0.211720 0.251940 -0.028188
v -0.040418 0.059830 -0.043778
v -0.085293 0.167402 -0.061841
v -0.177152 0.238844 -0.098817
v 0.091334 0.058873 -0.039082
v -0.090652 0.058873 -0.053694
v -0.023271 0.298259 0.280524
v 0.095308 0.192097 0.021340
v -0.104215 0.192097 0.005320
v -0.092593 0.280575 0.129281
v 0.064056 0.280575 0.141859
v -0.001869 0.088465 -0.017017
v -0.005741 0.196037 0.031203
v -0.013666 0.267479 0.129906
vt 0.226509 0.009651
vt 0.263770 0.109403
vt 0.215746 0.123132
vt 0.214747 0.351878
vt 0.149615 0.251861
vt 0.212446 0.238160
vt 0.166952 0.109403
vt 0.496843 0.009651
vt 0.530587 0.122721
vt 0.486114 0.131056
vt 0.486933 0.359700
vt 0.425661 0.257685
vt 0.483450 0.248586
vt 0.440984 0.122721
vt 0.523081 0.965288
vt 0.491030 0.866294
vt 0.523081 0.851423
vt 0.611807 0.285856
vt 0.559090 0.206976
vt 0.609476 0.195591
vt 0.572998 0.091755
vt 0.612134 0.102792
vt 0.922497 0.121285
vt 0.839325 0.043196
vt 0.880636 0.027614
vt 0.743164 0.220864
vt 0.677132 0.132755
vt 0.724512 0.120330
vt 0.708466 0.009651
vt 0.743164 0.018185
vt 0.986591 0.441949
vt 0.986591 0.531141
vt 0.948469 0.521962
vt 0.463513 0.686826
vt 0.392820 0.617620
vt 0.428690 0.605181
vt 0.398614 0.507059
vt 0.427551 0.510644
vt 0.967700 0.338350
vt 0.990349 0.422647
vt 0.948469 0.422647
vt 0.717530 0.510872
vt 0.674789 0.434270
vt 0.715652 0.425318
vt 0.531934 0.600672
vt 0.482814 0.505953
vt 0.515978 0.514177
vt 0.674789 0.900593
vt 0.727116 0.826905
vt 0.727116 0.931121
vt 0.567365 0.817211
vt 0.640954 0.730463
vt 0.642033 0.808622
vt 0.559090 0.739880
vt 0.642033 0.666762
vt 0.912370 0.656027
vt 0.968723 0.563900
vt 0.968723 0.658005
vt 0.867838 0.340256
vt 0.786858 0.416087
vt 0.789890 0.338350
vt 0.872318 0.418176
vt 0.805222 0.479785
vt 0.919664 0.967546
vt 0.929658 0.883417
vt 0.982956 0.967546
vt 0.019789 0.817240
vt 0.088059 0.731527
vt 0.091305 0.810357
vt 0.029746 0.667199
vt 0.091305 0.661275
vt 0.272931 0.251861
vt 0.270362 0.392696
vt 0.539788 0.257685
vt 0.538773 0.385281
vt 0.804733 0.689476
vt 0.792284 0.806462
vt 0.759942 0.681710
vt 0.824744 0.591598
vt 0.787370 0.563900
vt 0.806872 0.124009
vt 0.786587 0.218116
vt 0.762465 0.114093
vt 0.820024 0.033807
vt 0.781353 0.009651
vt 0.922497 0.009651
vt 0.463513 0.404583
vt 0.650522 0.091755
vt 0.657831 0.206976
vt 0.656385 0.319049
vt 0.621304 0.009651
vt 0.731708 0.338350
vt 0.767557 0.434270
vt 0.765901 0.544599
vt 0.531934 0.404582
vt 0.109975 0.411409
vt 0.083475 0.280237
vt 0.130314 0.289762
vt 0.076317 0.054485
vt 0.009651 0.148913
vt 0.019052 0.017201
vt 0.073007 0.160543
vt 0.035579 0.296261
vt 0.929168 0.338350
vt 0.929168 0.486511
vt 0.891619 0.475457
vt 0.345088 0.359700
vt 0.406360 0.257685
vt 0.397344 0.385281
vt 0.348572 0.248586
vt 0.391038 0.122721
vt 0.959653 0.747474
vt 0.959653 0.861339
vt 0.927601 0.846468
vt 0.613225 0.372390
vt 0.559090 0.452650
vt 0.567563 0.340160
vt 0.609813 0.462920
vt 0.579727 0.567214
vt 0.962168 0.254672
vt 0.922531 0.160038
vt 0.962168 0.140587
vt 0.373519 0.435687
vt 0.292233 0.511877
vt 0.336675 0.404582
vt 0.339740 0.525108
vt 0.300289 0.640373
vt 0.908300 0.747474
vt 0.877996 0.848563
vt 0.844046 0.829661
vt 0.065169 0.618798
vt 0.092203 0.533273
vt 0.101199 0.638493
vt 0.054294 0.528294
vt 0.101199 0.430710
vt 0.982912 0.096218
vt 0.941799 0.015915
vt 0.982912 0.009651
vt 0.203682 0.590454
vt 0.249103 0.515979
vt 0.247002 0.625977
vt 0.201920 0.505155
vt 0.248894 0.411998
vt 0.559090 0.867041
vt 0.611417 0.836513
vt 0.611417 0.940729
vt 0.229618 0.726377
vt 0.158958 0.645278
vt 0.231929 0.647952
vt 0.231929 0.800679
vt 0.149615 0.723446
vt 0.816370 0.926514
vt 0.759942 0.917851
vt 0.816370 0.825764
vt 0.286384 0.835221
vt 0.368459 0.912420
vt 0.288983 0.912420
vt 0.299955 0.774176
vt 0.373519 0.835221
vt 0.844046 0.917980
vt 0.900363 0.883417
vt 0.900363 0.977403
vt 0.149615 0.819981
vt 0.225782 0.898759
vt 0.153935 0.898759
vt 0.009651 0.917664
vt 0.075600 0.836541
vt 0.077453 0.917664
vt 0.130314 0.140635
vt 0.129110 0.009651
vt 0.301435 0.122721
vt 0.292233 0.257685
vt 0.293248 0.385281
vt 0.345907 0.131056
vt 0.335178 0.009651
vt 0.706203 0.563900
vt 0.721884 0.675169
vt 0.674789 0.687244
vt 0.740641 0.775536
vt 0.700948 0.807603
vt 0.036385 0.433705
vt 0.009651 0.537088
vt 0.025902 0.641973
vt 0.338543 0.631978
vt 0.373519 0.754875
vt 0.908300 0.864115
vt 0.655411 0.565656
vt 0.655487 0.450666
vt 0.655487 0.338350
vt 0.618093 0.555362
vt 0.639916 0.647460
vt 0.170784 0.411998
vt 0.149615 0.515979
vt 0.156259 0.625977
vt 0.130185 0.949186
vt 0.096754 0.942125
vt 0.130185 0.836541
vt 0.891185 0.140587
vt 0.878371 0.186494
vt 0.853058 0.179129
vt 0.874917 0.264110
vt 0.903230 0.237205
vt 0.903010 0.281758
vt 0.872827 0.227864
vt 0.903230 0.185147
vt 0.839325 0.229540
vt 0.844722 0.274767
vt 0.251230 0.646706
vt 0.272683 0.645278
vt 0.272683 0.697888
vt 0.461873 0.731352
vt 0.438723 0.782740
vt 0.411192 0.774567
vt 0.435211 0.877805
vt 0.461322 0.841417
vt 0.464974 0.898009
vt 0.429832 0.831871
vt 0.464974 0.779847
vt 0.392820 0.834692
vt 0.402493 0.891875
vt 0.790141 0.299362
vt 0.762465 0.299362
vt 0.773942 0.237418
vt 0.893069 0.563900
vt 0.876736 0.623405
vt 0.850509 0.616677
vt 0.539788 0.682151
vt 0.491030 0.717282
vt 0.515908 0.666761
vt 0.521730 0.722836
vt 0.496338 0.779120
vt 0.876881 0.673495
vt 0.844046 0.678190
vt 0.893069 0.713682
vt 0.866811 0.728173
vt 0.521056 0.773032
vt 0.539788 0.832122
vt 0.157885 0.392696
vt 0.434677 0.385281
vt 0.566323 0.319049
vt 0.703184 0.253278
vt 0.436151 0.712050
vt 0.681287 0.544599
vt 0.496145 0.617746
vt 0.577760 0.674155
vt 0.872318 0.481425
vt 0.009651 0.739073
vt 0.824744 0.793962
vt 0.820024 0.213082
vt 0.695582 0.350935
vt 0.069685 0.439580
vt 0.210047 0.424522
vt 0.169118 0.798378
vt 0.368367 0.774176
vt 0.228385 0.819981
vt 0.022368 0.836541
vt 0.740641 0.572750
vn 0.2319 0.9536 0.1921
vn -0.2283 0.3993 0.8879
vn -0.1462 0.8022 0.5788
vn -0.2448 0.9679 0.0574
vn -0.7447 0.4051 -0.5303
vn -0.4821 0.8070 -0.3411
vn 0.0032 0.9530 -0.3029
vn 0.8366 0.3991 -0.3752
vn 0.5439 0.8021 -0.2468
vn 0.0044 0.9717 -0.2361
vn 0.4439 0.6815 0.5818
vn 0.1444 0.9540 0.2628
vn -0.1286 0.9773 0.1686
vn 0.0219 0.6852 -0.7280
vn 0.0461 0.9561 -0.2894
vn 0.2840 0.9579 0.0419
vn -0.6216 0.6722 0.4021
vn -0.2926 0.9487 0.1202
vn -0.0680 0.9755 -0.2093
vn 0.2048 0.7484 0.6308
vn 0.0619 0.9797 0.1907
vn -0.2116 0.9755 0.0604
vn 0.6378 0.7484 -0.1819
vn 0.1928 0.9797 -0.0550
vn 0.2200 0.9755 -0.0070
vn -0.6629 0.7484 0.0212
vn -0.2004 0.9797 0.0064
vn 0.1184 0.7990 0.5895
vn 0.2439 0.4061 0.8807
vn -0.2304 0.9530 0.1968
vn -0.5651 0.8043 -0.1837
vn -0.8807 0.4101 -0.2371
vn -0.1113 0.9674 -0.2277
vn 0.2834 0.9538 0.0998
vn 0.6750 0.6855 0.2730
vn -0.1297 0.9556 -0.2645
vn -0.2935 0.6888 -0.6629
vn -0.2240 0.9725 0.0635
vn 0.1793 0.9779 0.1077
vn 0.3850 0.7988 -0.4622
vn 0.5326 0.4060 -0.7427
vn 0.2990 0.9525 0.0585
vn -0.0733 0.9493 0.3059
vn -0.2127 0.6770 0.7046
vn -0.1142 0.9592 -0.2588
vn -0.2319 -0.9536 -0.1921
vn 0.2431 -0.4062 -0.8809
vn 0.1181 -0.7991 -0.5895
vn 0.2448 -0.9679 -0.0574
vn 0.7357 -0.4101 0.5390
vn 0.4967 -0.8043 0.3262
vn -0.0032 -0.9530 0.3029
vn -0.8403 -0.4060 0.3592
vn -0.5346 -0.7989 0.2757
vn -0.0044 -0.9717 0.2361
vn -0.4301 -0.6855 -0.5874
vn -0.1662 -0.9538 -0.2503
vn 0.1286 -0.9773 -0.1686
vn -0.0343 -0.6888 0.7241
vn -0.0254 -0.9556 0.2934
vn -0.2840 -0.9579 -0.0419
vn 0.6271 -0.6771 -0.3850
vn 0.2769 -0.9493 -0.1487
vn 0.0680 -0.9755 0.2093
vn -0.2048 -0.7484 -0.6308
vn -0.0619 -0.9797 -0.1907
vn 0.2116 -0.9755 -0.0604
vn -0.6378 -0.7484 0.1819
vn -0.1928 -0.9797 0.0550
vn -0.2200 -0.9755 0.0070
vn 0.6629 -0.7484 -0.0212
vn 0.2004 -0.9797 -0.0064
vn -0.1184 -0.7990 -0.5895
vn -0.2439 -0.4061 -0.8807
vn 0.2304 -0.9530 -0.1968
vn 0.5651 -0.8043 0.1837
vn 0.8807 -0.4101 0.2371
vn 0.1113 -0.9674 0.2277
vn -0.2834 -0.9538 -0.0998
vn -0.6750 -0.6855 -0.2730
vn 0.1297 -0.9556 0.2645
vn 0.2935 -0.6888 0.6629
vn 0.2240 -0.9725 -0.0635
vn -0.1793 -0.9779 -0.1077
vn -0.3850 -0.7988 0.4622
vn -0.5326 -0.4060 0.7427
vn -0.2990 -0.9525 -0.0585
vn 0.0733 -0.9493 -0.3059
vn 0.2127 -0.6770 -0.7046
vn 0.1142 -0.9592 0.2588
vn 0.0507 -0.9695 -0.2396
vn 0.7792 -0.4137 -0.4709
vn 0.4958 -0.8025 -0.3319
vn 0.3983 -0.8025 -0.4443
vn 0.5755 -0.4137 -0.7055
vn 0.2472 -0.9688 -0.0203
vn -0.2364 -0.9695 0.0641
vn -0.7743 -0.4137 -0.4789
vn -0.5214 -0.8025 -0.2900
vn -0.5770 -0.8025 -0.1519
vn -0.8902 -0.4137 -0.1906
vn -0.1308 -0.9688 -0.2108
vn 0.1316 -0.9695 0.2065
vn -0.2264 -0.4137 0.8818
vn -0.1214 -0.8025 0.5842
vn 0.0269 -0.8025 0.5961
vn 0.0833 -0.4137 0.9066
vn -0.1622 -0.9688 0.1876
vn -0.2431 0.4062 0.8809
vn -0.1181 0.7991 0.5895
vn -0.7357 0.4101 -0.5390
vn -0.4967 0.8043 -0.3262
vn 0.8403 0.4060 -0.3592
vn 0.5346 0.7989 -0.2757
vn 0.4301 0.6855 0.5874
vn 0.1662 0.9538 0.2503
vn 0.0343 0.6888 -0.7241
vn 0.0254 0.9556 -0.2934
vn -0.6271 0.6771 0.3850
vn -0.2769 0.9493 0.1487
vn 0.1468 0.8022 0.5788
vn 0.2290 0.3992 0.8878
vn -0.5677 0.8070 -0.1629
vn -0.8795 0.4051 -0.2497
vn 0.2903 0.9539 0.0755
vn 0.6729 0.6815 0.2879
vn -0.1476 0.9561 -0.2533
vn -0.2832 0.6852 -0.6710
vn 0.3586 0.8020 -0.4777
vn 0.5475 0.3990 -0.7355
vn -0.0415 0.9486 0.3139
vn -0.2307 0.6721 0.7036
vn 0.2283 -0.3993 -0.8879
vn 0.1462 -0.8022 -0.5788
vn 0.7447 -0.4051 0.5303
vn 0.4821 -0.8070 0.3411
vn -0.8366 -0.3991 0.3752
vn -0.5439 -0.8021 0.2468
vn -0.4439 -0.6815 -0.5818
vn -0.1444 -0.9540 -0.2628
vn -0.0219 -0.6852 0.7280
vn -0.0461 -0.9561 0.2894
vn 0.6216 -0.6722 -0.4021
vn 0.2926 -0.9487 -0.1202
vn -0.1468 -0.8022 -0.5788
vn -0.2290 -0.3992 -0.8878
vn 0.5677 -0.8070 0.1629
vn 0.8795 -0.4051 0.2497
vn -0.2903 -0.9539 -0.0755
vn -0.6729 -0.6815 -0.2879
vn 0.1476 -0.9561 0.2533
vn 0.2832 -0.6852 0.6710
vn -0.3586 -0.8020 0.4777
vn -0.5475 -0.3990 0.7355
vn 0.0415 -0.9486 -0.3139
vn 0.2307 -0.6721 -0.7036
vn 0.7768 -0.4058 -0.4817
vn 0.5004 -0.8075 -0.3122
vn 0.3793 -0.8075 -0.4518
vn 0.5859 -0.4058 -0.7015
vn -0.7828 -0.4058 -0.4718
vn -0.5060 -0.8075 -0.3031
vn -0.5750 -0.8075 -0.1317
vn -0.8915 -0.4058 -0.2017
vn -0.2171 -0.4058 0.8878
vn -0.1385 -0.8075 0.5734
vn 0.0456 -0.8075 0.5881
vn 0.0731 -0.4058 0.9111
s off
f 3/1/1 7/2/1 66/3/1
f 64/4/2 5/5/2 65/6/2
f 65/6/3 6/7/3 66/3/3
f 10/8/4 14/9/4 69/10/4
f 67/11/5 12/12/5 68/13/5
f 68/13/6 13/14/6 69/10/6
f 17/15/7 21/16/7 78/17/7
f 76/18/8 19/19/8 77/20/8
f 77/20/9 20/21/9 78/22/9
f 24/23/10 28/24/10 72/25/10
f 70/26/11 26/27/11 71/28/11
f 71/28/12 27/29/12 72/30/12
f 31/31/13 35/32/13 75/33/13
f 73/34/14 33/35/14 74/36/14
f 74/36/15 34/37/15 75/38/15
f 38/39/16 42/40/16 81/41/16
f 79/42/17 40/43/17 80/44/17
f 80/45/18 41/46/18 81/47/18
f 48/48/19 45/49/19 49/50/19
f 44/51/20 46/52/20 43/53/20
f 47/54/21 49/55/21 46/52/21
f 55/56/22 52/57/22 56/58/22
f 51/59/23 53/60/23 50/61/23
f 54/62/24 56/63/24 53/60/24
f 62/64/25 59/65/25 63/66/25
f 58/67/26 60/68/26 57/69/26
f 60/68/27 62/70/27 63/71/27
f 65/6/28 7/2/28 4/72/28
f 64/4/29 4/72/29 1/73/29
f 6/7/30 3/1/30 66/3/30
f 68/13/31 14/9/31 11/74/31
f 67/11/32 11/74/32 8/75/32
f 13/14/33 10/8/33 69/10/33
f 71/76/34 28/77/34 25/78/34
f 70/79/35 25/78/35 22/80/35
f 74/81/36 35/82/36 32/83/36
f 73/84/37 32/83/37 29/85/37
f 27/86/38 24/23/38 72/25/38
f 34/37/39 31/87/39 75/38/39
f 77/20/40 21/88/40 18/89/40
f 76/18/41 18/89/41 15/90/41
f 20/21/42 17/91/42 78/22/42
f 80/44/43 42/92/43 39/93/43
f 79/42/44 39/93/44 36/94/44
f 41/46/45 38/95/45 81/47/45
f 84/96/46 147/97/46 88/98/46
f 145/99/47 86/100/47 83/101/47
f 146/102/48 87/103/48 86/100/48
f 91/104/49 150/105/49 95/106/49
f 148/107/50 93/108/50 90/109/50
f 149/110/51 94/111/51 93/108/51
f 98/112/52 159/113/52 102/114/52
f 157/115/53 100/116/53 97/117/53
f 158/118/54 101/119/54 100/116/54
f 105/120/55 153/121/55 109/122/55
f 151/123/56 107/124/56 104/125/56
f 152/126/57 108/127/57 107/124/57
f 112/128/58 156/129/58 116/130/58
f 154/131/59 114/132/59 111/133/59
f 155/134/60 115/135/60 114/132/60
f 119/136/61 162/137/61 123/138/61
f 160/139/62 121/140/62 118/141/62
f 161/142/63 122/143/63 121/140/63
f 129/144/64 130/145/64 126/146/64
f 127/147/65 125/148/65 124/149/65
f 130/150/66 128/151/66 127/147/66
f 136/152/67 137/153/67 133/154/67
f 134/155/68 132/156/68 131/157/68
f 137/158/69 135/159/69 134/155/69
f 143/160/70 144/161/70 140/162/70
f 141/163/71 139/164/71 138/165/71
f 141/166/72 143/167/72 142/168/72
f 88/98/73 146/102/73 85/169/73
f 85/169/74 145/99/74 82/170/74
f 87/103/75 147/97/75 84/96/75
f 95/171/76 149/110/76 92/172/76
f 92/172/77 148/107/77 89/173/77
f 94/111/78 150/174/78 91/175/78
f 109/176/79 152/177/79 106/178/79
f 106/178/80 151/179/80 103/180/80
f 116/181/81 155/134/81 113/182/81
f 113/182/82 154/131/82 110/183/82
f 108/127/83 153/184/83 105/185/83
f 115/186/84 156/129/84 112/128/84
f 102/187/85 158/118/85 99/188/85
f 99/188/86 157/115/86 96/189/86
f 101/119/87 159/190/87 98/191/87
f 123/192/88 161/142/88 120/193/88
f 120/193/89 160/139/89 117/194/89
f 122/195/90 162/196/90 119/197/90
f 165/198/91 172/199/91 169/200/91
f 170/201/92 167/202/92 164/203/92
f 171/204/93 168/205/93 167/202/93
f 169/200/94 171/204/94 166/206/94
f 166/206/95 170/201/95 163/207/95
f 168/208/96 172/209/96 165/210/96
f 175/211/97 182/212/97 179/213/97
f 180/214/98 177/215/98 174/216/98
f 181/217/99 178/218/99 177/215/99
f 179/213/100 181/217/100 176/219/100
f 176/219/101 180/214/101 173/220/101
f 178/221/102 182/222/102 175/223/102
f 185/224/103 192/225/103 189/226/103
f 190/227/104 187/228/104 184/229/104
f 191/230/105 188/231/105 187/228/105
f 189/226/106 191/232/106 186/233/106
f 186/233/107 190/234/107 183/235/107
f 188/231/108 192/236/108 185/237/108
f 64/4/109 2/238/109 5/5/109
f 65/6/110 5/5/110 6/7/110
f 67/11/111 9/239/111 12/12/111
f 68/13/112 12/12/112 13/14/112
f 76/18/113 16/240/113 19/19/113
f 77/20/114 19/19/114 20/21/114
f 70/26/115 23/241/115 26/27/115
f 71/28/116 26/27/116 27/29/116
f 73/34/117 30/242/117 33/35/117
f 74/36/118 33/35/118 34/37/118
f 79/42/119 37/243/119 40/43/119
f 80/45/120 40/244/120 41/46/120
f 44/51/20 47/54/20 46/52/20
f 47/54/21 48/245/21 49/55/21
f 51/59/23 54/62/23 53/60/23
f 54/62/24 55/246/24 56/63/24
f 58/67/26 61/247/26 60/68/26
f 60/68/27 61/247/27 62/70/27
f 65/6/121 66/3/121 7/2/121
f 64/4/122 65/6/122 4/72/122
f 68/13/123 69/10/123 14/9/123
f 67/11/124 68/13/124 11/74/124
f 71/76/125 72/248/125 28/77/125
f 70/79/126 71/76/126 25/78/126
f 74/81/127 75/249/127 35/82/127
f 73/84/128 74/81/128 32/83/128
f 77/20/129 78/22/129 21/88/129
f 76/18/130 77/20/130 18/89/130
f 80/44/131 81/250/131 42/92/131
f 79/42/132 80/44/132 39/93/132
f 145/99/133 146/102/133 86/100/133
f 146/102/134 147/97/134 87/103/134
f 148/107/135 149/110/135 93/108/135
f 149/110/136 150/174/136 94/111/136
f 157/115/137 158/118/137 100/116/137
f 158/118/138 159/190/138 101/119/138
f 151/123/139 152/126/139 107/124/139
f 152/126/140 153/184/140 108/127/140
f 154/131/141 155/134/141 114/132/141
f 155/134/142 156/251/142 115/135/142
f 160/139/143 161/142/143 121/140/143
f 161/142/144 162/252/144 122/143/144
f 127/147/65 128/151/65 125/148/65
f 130/150/66 129/253/66 128/151/66
f 134/155/68 135/159/68 132/156/68
f 137/158/69 136/254/69 135/159/69
f 141/163/71 142/255/71 139/164/71
f 141/166/72 144/256/72 143/167/72
f 88/98/145 147/97/145 146/102/145
f 85/169/146 146/102/146 145/99/146
f 95/171/147 150/174/147 149/110/147
f 92/172/148 149/110/148 148/107/148
f 109/176/149 153/257/149 152/177/149
f 106/178/150 152/177/150 151/179/150
f 116/181/151 156/251/151 155/134/151
f 113/182/152 155/134/152 154/131/152
f 102/187/153 159/190/153 158/118/153
f 99/188/154 158/118/154 157/115/154
f 123/192/155 162/252/155 161/142/155
f 120/193/156 161/142/156 160/139/156
f 170/201/157 171/204/157 167/202/157
f 171/204/158 172/199/158 168/205/158
f 169/200/159 172/199/159 171/204/159
f 166/206/160 171/204/160 170/201/160
f 180/214/161 181/217/161 177/215/161
f 181/217/162 182/212/162 178/218/162
f 179/213/163 182/212/163 181/217/163
f 176/219/164 181/217/164 180/214/164
f 190/227/165 191/230/165 187/228/165
f 191/230/166 192/236/166 188/231/166
f 189/226/167 192/225/167 191/232/167
f 186/233/168 191/232/168 190/234/168
