# Blender v2.91.2 OBJ File: ''
# www.blender.org
o Cube
v 0.621911 0.604838 -0.604850
v 0.621911 -0.603882 -0.604850
v 0.621911 0.604838 0.603869
v 0.621911 -0.603882 0.603869
v -0.616952 0.604838 -0.604850
v -0.616952 -0.603882 -0.604850
v -0.616952 0.604838 0.603869
v -0.616952 -0.603882 0.603869
v -0.616952 -1.208533 -0.002737
v 0.621911 1.213871 -0.002737
v -0.616952 1.213871 -0.002737
v 0.621911 -1.208533 -0.002737
v 0.000000 -1.000000 -1.000000
v 0.000000 1.000000 1.000000
v 0.000000 -1.000000 1.000000
v 0.000000 1.000000 -1.000000
v 0.000000 -2.000484 -0.003717
v 0.000000 2.007732 -0.003717
vt 0.877987 0.139839
vt 0.747662 0.000100
vt 0.999900 0.032716
vt 0.633890 0.241353
vt 0.500552 0.218835
vt 0.500352 0.215011
vt 0.377941 0.361848
vt 0.366302 0.246871
vt 0.124945 0.141646
vt 0.000100 0.283452
vt 0.004811 0.035821
vt 0.866449 0.254994
vt 0.744379 0.365970
vt 0.760908 0.136891
vt 0.244327 0.136104
vt 0.249106 0.000100
vt 0.999900 0.286462
vt 0.749189 0.501319
vt 0.624879 0.360502
vt 0.261024 0.364846
vt 0.134052 0.260670
vt 0.247691 0.502310
vt 0.500352 0.469238
vt 0.505216 0.466079
vn -0.6718 0.5227 0.5248
vn -0.5403 0.0000 0.8415
vn 0.6684 0.5230 -0.5290
vn 0.6693 -0.5262 0.5245
vn -1.0000 0.0000 0.0000
vn 0.5363 0.0000 -0.8440
vn -0.5393 0.0000 -0.8421
vn 0.6688 -0.5246 -0.5268
vn -0.6718 -0.5227 -0.5249
vn -0.6713 0.5211 -0.5271
vn 1.0000 0.0000 0.0000
vn -0.6722 -0.5243 0.5227
vn 0.5372 0.0000 0.8434
vn 0.6688 0.5246 0.5267
s off
f 11/1/1 14/2/1 18/3/1
f 14/2/2 8/4/2 15/5/2
f 16/6/3 10/7/3 1/8/3
f 12/9/4 15/10/4 17/11/4
f 5/12/5 6/13/5 7/14/5
f 16/6/6 2/15/6 13/16/6
f 6/13/7 16/17/7 13/18/7
f 13/16/8 12/9/8 17/11/8
f 13/18/9 9/19/9 6/13/9
f 16/17/10 11/1/10 18/3/10
f 3/20/11 4/21/11 2/15/11
f 9/19/12 15/5/12 8/4/12
f 4/21/13 14/22/13 15/10/13
f 10/7/14 14/22/14 3/20/14
f 11/1/1 7/14/1 14/2/1
f 14/2/2 7/14/2 8/4/2
f 16/6/3 18/23/3 10/7/3
f 12/9/4 4/21/4 15/10/4
f 9/19/5 8/4/5 6/13/5
f 8/4/5 7/14/5 6/13/5
f 7/14/5 11/1/5 5/12/5
f 16/6/6 1/8/6 2/15/6
f 6/13/7 5/12/7 16/17/7
f 13/16/8 2/15/8 12/9/8
f 13/18/9 17/24/9 9/19/9
f 16/17/10 5/12/10 11/1/10
f 12/9/11 2/15/11 4/21/11
f 2/15/11 1/8/11 3/20/11
f 1/8/11 10/7/11 3/20/11
f 9/19/12 17/24/12 15/5/12
f 4/21/13 3/20/13 14/22/13
f 10/7/14 18/23/14 14/22/14
