# Blender v2.91.2 OBJ File: ''
# www.blender.org
o Cube
v 0.000000 -0.000000 -0.350000
v -0.000000 5.070080 -0.222485
v 0.247487 -0.000000 -0.247487
v 0.157320 5.070080 -0.157320
v 0.350000 -0.000000 0.000000
v 0.222485 5.070080 0.000000
v 0.247487 -0.000000 0.247487
v 0.157320 5.070080 0.157320
v -0.000000 -0.000000 0.350000
v -0.000000 5.070080 0.222485
v -0.247487 -0.000000 0.247487
v -0.157320 5.070080 0.157320
v -0.350000 -0.000000 -0.000000
v -0.222485 5.070080 -0.000000
v -0.247487 -0.000000 -0.247487
v -0.157320 5.070080 -0.157320
vt 0.346962 1.000000
vt 0.323224 0.000000
vt 0.360567 0.000508
vt 0.323224 0.999677
vt 0.270425 0.000508
vt 0.090142 0.000508
vt 0.052799 0.999677
vt 0.052799 0.000000
vt 0.000000 0.000508
vt 0.166679 1.000000
vt 0.142941 0.000000
vt 0.180284 0.000508
vt 0.142941 0.999677
vt 0.090142 0.000508
vt 0.441598 0.057298
vt 0.417865 0.081031
vt 0.384301 0.081031
vt 0.270425 0.000508
vt 0.233083 0.999677
vt 0.233082 0.000000
vt 0.180284 0.000508
vt 0.289662 1.000000
vt 0.076537 1.000000
vt 0.019236 1.000000
vt 0.109378 1.000000
vt 0.360567 0.057298
vt 0.360567 0.023734
vt 0.384301 0.000000
vt 0.417865 0.000000
vt 0.441598 0.023734
vt 0.256820 1.000000
vt 0.199520 1.000000
vn 0.3826 0.0232 -0.9236
vn 0.9236 0.0232 -0.3826
vn 0.9236 0.0232 0.3826
vn 0.3826 0.0232 0.9236
vn -0.3826 0.0232 0.9236
vn -0.9236 0.0232 0.3826
vn 0.0000 1.0000 0.0000
vn -0.9236 0.0232 -0.3826
vn -0.3826 0.0232 -0.9236
s off
f 2/1/1 3/2/1 1/3/1
f 4/4/2 5/5/2 3/2/2
f 5/6/3 8/7/3 7/8/3
f 8/7/4 9/9/4 7/8/4
f 10/10/5 11/11/5 9/12/5
f 12/13/6 13/14/6 11/11/6
f 10/15/7 8/16/7 6/17/7
f 13/18/8 16/19/8 15/20/8
f 16/19/9 1/21/9 15/20/9
f 2/1/1 4/4/1 3/2/1
f 4/4/2 6/22/2 5/5/2
f 5/6/3 6/23/3 8/7/3
f 8/7/4 10/24/4 9/9/4
f 10/10/5 12/13/5 11/11/5
f 12/13/6 14/25/6 13/14/6
f 6/17/7 4/26/7 2/27/7
f 2/27/7 16/28/7 6/17/7
f 16/28/7 14/29/7 6/17/7
f 14/29/7 12/30/7 6/17/7
f 12/30/7 10/15/7 6/17/7
f 13/18/8 14/31/8 16/19/8
f 16/19/9 2/32/9 1/21/9
