# Blender v2.91.2 OBJ File: 'tree.blend'
# www.blender.org
o Cube
v 0.280522 1.853474 -0.280522
v 0.280522 1.853474 0.280522
v -0.280522 1.853474 -0.280522
v -0.280522 1.853474 0.280522
v 0.500000 0.500000 0.500000
v -0.500000 0.500000 0.500000
v 0.500000 0.500000 -0.500000
v -0.500000 0.500000 -0.500000
v -0.728236 1.096183 -0.860590
v 0.728236 1.096183 -0.860590
v 0.728236 0.417392 -1.934895
v -0.728236 0.417392 -1.934895
v 0.728236 2.096051 -0.184630
v -0.728236 2.096051 -0.184630
v -0.736063 1.096183 0.821998
v -1.055499 1.096183 -0.599013
v -2.103647 0.417392 -0.363394
v -1.784210 0.417392 1.057617
v -0.395996 2.096051 -0.747266
v -0.076560 2.096051 0.673745
v 1.235324 1.096183 0.258839
v 0.140587 1.096183 1.219495
v 0.849174 0.417392 2.026982
v 1.943912 0.417392 1.066325
v -0.305261 2.096051 0.711419
v 0.789476 2.096051 -0.249238
v 0.923595 1.594273 -0.838576
v 0.879120 1.594273 0.617216
v 1.952924 0.915482 0.650022
v 1.997399 0.915482 -0.805771
v 0.203475 2.594141 0.596575
v 0.247950 2.594141 -0.859218
v 0.419777 1.594273 1.024153
v -0.905415 1.594273 0.419854
v -1.351150 0.915482 1.397326
v -0.025958 0.915482 2.001624
v -0.624955 2.594141 -0.195178
v 0.700237 2.594141 0.409121
v -1.056894 1.709585 0.257280
v -0.371913 1.709585 -1.028065
v -1.319993 1.030794 -1.533312
v -2.004974 1.030794 -0.247967
v 0.224626 2.709454 -0.710160
v -0.460355 2.709454 0.575185
v -0.747229 2.224406 0.430861
v -0.632311 2.224406 -0.569546
v -1.370218 1.502949 -0.654311
v -1.485137 1.502949 0.346097
v -0.168014 3.287123 -0.516211
v -0.282932 3.287123 0.484196
v 0.407873 2.224406 0.568997
v -0.593381 2.224406 0.676287
v -0.514243 1.502949 1.414820
v 0.487011 1.502949 1.307529
v -0.643176 3.287123 0.211597
v 0.358078 3.287123 0.104307
v 0.226118 2.224406 -0.810847
v 0.717410 2.224406 0.068159
v 1.365772 1.502949 -0.294222
v 0.874479 1.502949 -1.173228
v 0.309457 3.287123 0.296172
v -0.181836 3.287123 -0.582834
v -0.430885 2.767978 -0.646218
v 0.441392 2.767978 -0.518923
v 0.535286 2.136414 -1.162321
v -0.336991 2.136414 -1.289616
v 0.382313 3.698280 -0.114092
v -0.489963 3.698280 -0.241388
v 0.637925 2.753804 -0.208965
v 0.118290 2.753804 0.653590
v 0.754517 2.032347 1.036876
v 1.274152 2.032347 0.174322
v -0.282028 3.816521 0.412423
v 0.237607 3.816521 -0.450132
v 0.160874 2.876365 0.842486
v -0.667944 2.876365 0.270577
v -1.089789 2.154907 0.881920
v -0.260970 2.154907 1.453829
v -0.402517 3.939081 -0.114085
v 0.426302 3.939081 0.457824
v 0.501185 1.005248 -1.099407
v 1.207995 1.005248 0.174065
v 2.147317 0.326457 -0.347283
v 1.440508 0.326457 -1.620755
v 0.616967 2.005116 0.502101
v -0.089843 2.005116 -0.771371
v 0.421547 0.988836 1.159588
v -1.014075 0.988836 0.914028
v -1.195202 0.310045 1.972953
v 0.240419 0.310045 2.218514
v -0.900108 1.988704 0.247744
v 0.535513 1.988704 0.493305
v -0.571261 3.636784 0.211926
v -0.040883 3.636784 -0.415560
v -0.503722 2.908926 -0.806771
v -1.034099 2.908926 -0.179284
v 0.250339 4.708928 -0.169408
v -0.280039 4.708928 0.458079
v 0.528031 3.636662 0.067859
v 0.008485 3.636662 0.704343
v 0.477960 2.908803 1.087564
v 0.997506 2.908803 0.451081
v -0.286913 4.708806 0.463217
v 0.232634 4.708806 -0.173266
v -1.220207 0.893812 0.061196
v -0.288313 0.893812 -0.786961
v -0.913921 0.306550 -1.474333
v -1.845814 0.306550 -0.626175
v 0.105323 1.758856 -0.354462
v -0.826570 1.758856 0.493696
vt 0.864350 0.528228
vt 0.705963 0.686615
vt 0.705963 0.528229
vt 0.525391 0.140625
vt 0.000000 0.500000
vt 0.000000 0.140625
vt 0.870209 0.481537
vt 0.666016 0.527344
vt 0.711822 0.481537
vt 0.815338 0.670990
vt 0.769531 0.466797
vt 0.815338 0.512604
vt 0.786225 0.520416
vt 0.832031 0.724609
vt 0.786225 0.678803
vt 0.709869 0.547760
vt 0.914062 0.501953
vt 0.868256 0.547760
vt 0.525391 0.500000
vt 0.000000 0.892578
vt 0.525391 0.140625
vt 0.000000 0.500000
vt 0.000000 0.140625
vt 0.525391 0.500000
vt 0.000000 0.892578
vt 0.525391 0.140625
vt 0.000000 0.500000
vt 0.000000 0.140625
vt 0.525391 0.500000
vt 0.000000 0.892578
vt 0.000000 0.140625
vt 0.525391 0.500000
vt 0.000000 0.500000
vt 0.000000 0.892578
vt 0.525391 0.140625
vt 0.000000 0.500000
vt 0.000000 0.140625
vt 0.525391 0.500000
vt 0.000000 0.892578
vt 0.525391 0.140625
vt 0.000000 0.500000
vt 0.000000 0.140625
vt 0.525391 0.892578
vt 0.000000 0.892578
vt 0.525391 0.140625
vt 0.000000 0.500000
vt 0.000000 0.140625
vt 0.525391 0.892578
vt 0.000000 0.892578
vt 0.525391 0.140625
vt 0.000000 0.500000
vt 0.000000 0.140625
vt 0.525391 0.500000
vt 0.000000 0.892578
vt 0.525391 0.140625
vt 0.000000 0.500000
vt 0.000000 0.140625
vt 0.525391 0.500000
vt 0.000000 0.892578
vt 0.525391 0.140625
vt 0.000000 0.500000
vt 0.000000 0.140625
vt 0.525391 0.500000
vt 0.000000 0.892578
vt 0.000000 0.140625
vt 0.525391 0.500000
vt 0.000000 0.500000
vt 0.000000 0.892578
vt 0.525391 0.140625
vt 0.000000 0.500000
vt 0.000000 0.140625
vt 0.525391 0.892578
vt 0.000000 0.892578
vt 0.525391 0.140625
vt 0.000000 0.500000
vt 0.000000 0.140625
vt 0.525391 0.892578
vt 0.000000 0.892578
vt 0.525391 0.140625
vt 0.000000 0.500000
vt 0.000000 0.140625
vt 0.525391 0.892578
vt 0.000000 0.892578
vt 0.525391 0.140625
vt 0.000000 0.500000
vt 0.000000 0.140625
vt 0.525391 0.500000
vt 0.000000 0.892578
vt 0.525391 0.140625
vt 0.000000 0.500000
vt 0.000000 0.140625
vt 0.525391 0.500000
vt 0.000000 0.892578
vt 0.525391 0.140625
vt 0.000000 0.500000
vt 0.000000 0.140625
vt 0.525391 0.892578
vt 0.000000 0.892578
vt 0.864350 0.686615
vt 0.916016 0.527344
vt 0.769531 0.716797
vt 0.832031 0.474609
vt 0.664062 0.501953
vt 0.525391 0.892578
vt 0.525391 0.892578
vt 0.525391 0.892578
vt 0.525391 0.140625
vt 0.525391 0.892578
vt 0.525391 0.892578
vt 0.525391 0.500000
vt 0.525391 0.500000
vt 0.525391 0.892578
vt 0.525391 0.892578
vt 0.525391 0.892578
vt 0.525391 0.140625
vt 0.525391 0.892578
vt 0.525391 0.500000
vt 0.525391 0.500000
vt 0.525391 0.500000
vt 0.525391 0.892578
vt 0.525391 0.892578
vt 0.525391 0.500000
vn 0.0000 1.0000 0.0000
vn 0.0000 0.5601 -0.8284
vn 0.0000 0.1601 0.9871
vn 0.9871 0.1601 0.0000
vn -0.9871 0.1601 0.0000
vn 0.0000 0.1601 -0.9871
vn 0.0000 0.8454 -0.5342
vn -0.8083 0.5601 0.1817
vn -0.5211 0.8454 0.1172
vn 0.5464 0.5601 0.6227
vn 0.3523 0.8454 0.4015
vn 0.8281 0.5601 0.0253
vn 0.5339 0.8454 0.0163
vn -0.3437 0.5601 0.7538
vn -0.2216 0.8454 0.4860
vn -0.7311 0.5601 -0.3896
vn -0.4714 0.8454 -0.2512
vn -0.9094 0.4026 -0.1045
vn -0.6922 0.7173 -0.0795
vn 0.0975 0.4026 0.9102
vn 0.0742 0.7173 0.6928
vn 0.7991 0.4026 -0.4466
vn 0.6082 0.7173 -0.3399
vn 0.1322 0.4026 -0.9058
vn 0.1006 0.7173 -0.6894
vn 0.7841 0.4026 0.4724
vn 0.5968 0.7173 0.3595
vn -0.5199 0.4026 0.7534
vn -0.3957 0.7173 0.5735
vn 0.7244 0.5601 -0.4020
vn 0.4670 0.8454 -0.2592
vn -0.1397 0.5601 0.8166
vn -0.0901 0.8454 0.5265
vn -0.7196 0.3351 -0.6082
vn -0.5869 0.6399 -0.4961
vn 0.7299 0.3351 0.5958
vn 0.5953 0.6399 0.4860
vn -0.5576 0.5601 -0.6127
vn -0.3595 0.8454 -0.3950
s off
f 3/1/1 2/2/1 1/3/1
f 13/4/2 9/5/2 14/6/2
f 4/7/3 5/8/3 2/9/3
f 2/10/4 7/11/4 1/12/4
f 3/13/5 6/14/5 4/15/5
f 1/16/6 8/17/6 3/18/6
f 10/19/7 12/20/7 9/5/7
f 19/21/8 15/22/8 20/23/8
f 16/24/9 18/25/9 15/22/9
f 25/26/10 21/27/10 26/28/10
f 22/29/11 24/30/11 21/27/11
f 32/31/12 28/32/12 27/33/12
f 28/32/13 30/34/13 27/33/13
f 37/35/14 33/36/14 38/37/14
f 34/38/15 36/39/15 33/36/15
f 43/40/16 39/41/16 44/42/16
f 39/41/17 41/43/17 42/44/17
f 49/45/18 45/46/18 50/47/18
f 45/46/19 47/48/19 48/49/19
f 55/50/20 51/51/20 56/52/20
f 52/53/21 54/54/21 51/51/21
f 61/55/22 57/56/22 62/57/22
f 58/58/23 60/59/23 57/56/23
f 67/60/24 63/61/24 68/62/24
f 64/63/25 66/64/25 63/61/25
f 74/65/26 70/66/26 69/67/26
f 70/66/27 72/68/27 69/67/27
f 79/69/28 75/70/28 80/71/28
f 75/70/29 77/72/29 78/73/29
f 85/74/30 81/75/30 86/76/30
f 81/75/31 83/77/31 84/78/31
f 91/79/32 87/80/32 92/81/32
f 87/80/33 89/82/33 90/83/33
f 97/84/34 93/85/34 98/86/34
f 94/87/35 96/88/35 93/85/35
f 103/89/36 99/90/36 104/91/36
f 100/92/37 102/93/37 99/90/37
f 109/94/38 105/95/38 110/96/38
f 105/95/39 107/97/39 108/98/39
f 3/1/1 4/99/1 2/2/1
f 13/4/2 10/19/2 9/5/2
f 4/7/3 6/100/3 5/8/3
f 2/10/4 5/101/4 7/11/4
f 3/13/5 8/102/5 6/14/5
f 1/16/6 7/103/6 8/17/6
f 10/19/7 11/104/7 12/20/7
f 19/21/8 16/24/8 15/22/8
f 16/24/9 17/105/9 18/25/9
f 25/26/10 22/29/10 21/27/10
f 22/29/11 23/106/11 24/30/11
f 32/31/12 31/107/12 28/32/12
f 28/32/13 29/108/13 30/34/13
f 37/35/14 34/38/14 33/36/14
f 34/38/15 35/109/15 36/39/15
f 43/40/16 40/110/16 39/41/16
f 39/41/17 40/110/17 41/43/17
f 49/45/18 46/111/18 45/46/18
f 45/46/19 46/111/19 47/48/19
f 55/50/20 52/53/20 51/51/20
f 52/53/21 53/112/21 54/54/21
f 61/55/22 58/58/22 57/56/22
f 58/58/23 59/113/23 60/59/23
f 67/60/24 64/63/24 63/61/24
f 64/63/25 65/114/25 66/64/25
f 74/65/26 73/115/26 70/66/26
f 70/66/27 71/116/27 72/68/27
f 79/69/28 76/117/28 75/70/28
f 75/70/29 76/117/29 77/72/29
f 85/74/30 82/118/30 81/75/30
f 81/75/31 82/118/31 83/77/31
f 91/79/32 88/119/32 87/80/32
f 87/80/33 88/119/33 89/82/33
f 97/84/34 94/87/34 93/85/34
f 94/87/35 95/120/35 96/88/35
f 103/89/36 100/92/36 99/90/36
f 100/92/37 101/121/37 102/93/37
f 109/94/38 106/122/38 105/95/38
f 105/95/39 106/122/39 107/97/39
