# Blender v2.91.2 OBJ File: 'fern.blend'
# www.blender.org
o Cube
v -0.171391 -0.043673 -0.135300
v 0.171301 -0.043673 -0.135300
v -0.004977 0.673627 -1.117386
v -0.187904 0.355521 -0.314816
v 0.187813 0.355521 -0.314816
v 0.147446 0.620638 -0.682278
v -0.147536 0.620638 -0.682278
v 0.081594 -0.030398 -0.168612
v -0.055867 -0.030398 0.117531
v 0.869300 0.652733 0.380536
v 0.238110 0.339391 -0.110392
v 0.087403 0.339391 0.203326
v 0.410420 0.584978 0.317016
v 0.528743 0.584978 0.070711
v 0.028662 -0.035045 0.129480
v -0.143177 -0.035045 -0.084809
v -0.668067 0.539372 0.517205
v -0.075311 0.284922 0.229821
v -0.263710 0.284922 -0.005118
v -0.473245 0.497422 0.204384
v -0.325330 0.497422 0.388839
v -0.074616 -0.024558 0.115565
v 0.120038 -0.024558 -0.134229
v -0.783131 0.272945 -0.631384
v -0.289780 0.246374 -0.032758
v -0.076368 0.246374 -0.306624
v -0.394372 0.354383 -0.507139
v -0.561926 0.354383 -0.292122
v 0.127725 -0.031438 -0.039673
v -0.139705 -0.031438 0.010216
v 0.161197 0.225839 0.859125
v 0.181710 0.201305 0.178237
v -0.111492 0.201305 0.232934
v -0.021057 0.294090 0.542965
v 0.209140 0.294090 0.500022
v -0.041603 -0.038835 -0.124032
v 0.181831 -0.038835 0.048405
v 0.602022 0.222762 -0.733491
v 0.089688 0.202628 -0.316410
v 0.334654 0.202628 -0.127355
v 0.512030 0.298889 -0.411605
v 0.319703 0.298889 -0.560035
v -0.146752 -0.062679 -0.027040
v 0.083294 -0.062679 -0.101740
v -0.259811 0.076820 -0.753620
v -0.213103 0.095890 -0.193639
v 0.039112 0.095890 -0.275537
v -0.062877 0.145525 -0.497372
v -0.260895 0.145525 -0.433072
v -0.044699 -0.062679 0.076460
v -0.111051 -0.062679 -0.156131
v -0.774885 0.076820 0.163233
v -0.213583 0.095890 0.136758
v -0.286329 0.095890 -0.118248
v -0.511698 0.145525 -0.024328
v -0.454584 0.145525 0.175881
v 0.051940 -0.062679 -0.155423
v 0.059664 -0.062679 0.086324
v 0.781280 0.076820 -0.061798
v 0.230424 0.095890 -0.172786
v 0.238891 0.095890 0.092258
v 0.480346 0.145525 0.056038
v 0.473698 0.145525 -0.152052
v -0.000323 0.044997 -0.223558
v -0.000323 0.367328 -0.368508
v -0.000323 0.581397 -0.665217
v 0.062377 0.024706 -0.001946
v 0.192908 0.346728 0.060760
v 0.460099 0.560591 0.189117
v -0.043908 0.015515 -0.060963
v -0.215296 0.241160 -0.194518
v -0.461049 0.331116 -0.386023
v 0.005166 -0.002917 0.044210
v 0.040574 0.197595 0.234015
v 0.091345 0.277531 0.506176
v -0.112891 0.036782 0.067237
v -0.203301 0.294486 0.139736
v -0.388365 0.465634 0.288141
v 0.131554 0.009142 -0.117861
v 0.241714 0.196386 -0.260599
v 0.399671 0.271033 -0.465271
v -0.171391 -0.043673 -0.135300
v 0.171301 -0.043673 -0.135300
v -0.187904 0.355521 -0.314816
v 0.187813 0.355521 -0.314816
v 0.081594 -0.030398 -0.168612
v -0.055867 -0.030398 0.117531
v 0.238110 0.339391 -0.110392
v 0.087403 0.339391 0.203326
v 0.028662 -0.035045 0.129480
v -0.143177 -0.035045 -0.084809
v -0.075311 0.284922 0.229821
v -0.263710 0.284922 -0.005118
v -0.074616 -0.024558 0.115565
v 0.120038 -0.024558 -0.134229
v -0.289780 0.246374 -0.032758
v -0.076368 0.246374 -0.306624
v 0.127725 -0.031438 -0.039673
v -0.139705 -0.031438 0.010216
v 0.181710 0.201305 0.178237
v -0.111492 0.201305 0.232934
v -0.041603 -0.038835 -0.124032
v 0.181831 -0.038835 0.048405
v 0.089688 0.202628 -0.316410
v 0.334654 0.202628 -0.127355
v -0.146752 -0.062679 -0.027040
v 0.083294 -0.062679 -0.101740
v -0.213103 0.095890 -0.193639
v 0.039112 0.095890 -0.275537
v -0.044699 -0.062679 0.076460
v -0.111051 -0.062679 -0.156131
v -0.213583 0.095890 0.136758
v -0.286329 0.095890 -0.118248
v 0.051940 -0.062679 -0.155423
v 0.059664 -0.062679 0.086324
v 0.230424 0.095890 -0.172786
v 0.238891 0.095890 0.092258
v -0.000323 0.044997 -0.223558
v -0.000323 0.367328 -0.368508
v 0.062377 0.024706 -0.001946
v 0.192908 0.346728 0.060760
v -0.043908 0.015515 -0.060963
v -0.215296 0.241160 -0.194518
v 0.005166 -0.002917 0.044210
v 0.040574 0.197595 0.234015
v -0.112891 0.036782 0.067237
v -0.203301 0.294486 0.139736
v 0.131554 0.009142 -0.117861
v 0.241714 0.196386 -0.260599
v -0.074888 0.075801 -0.133607
v 0.049319 0.075801 0.009503
v 0.242342 0.324264 -0.287088
v -0.033911 0.214077 -0.181261
v 0.102265 0.214077 -0.024359
v 0.183762 0.305910 -0.124647
v 0.076848 0.305910 -0.247833
v 0.010203 0.106515 -0.082206
v 0.048122 0.218166 -0.115116
v 0.125741 0.292317 -0.182482
v -0.058908 0.037798 0.064708
v 0.026310 0.037798 -0.146998
v -0.397582 0.337030 -0.191082
v -0.132485 0.204327 0.046945
v -0.039055 0.204327 -0.185163
v -0.191297 0.314925 -0.217466
v -0.264650 0.314925 -0.035234
v -0.050523 0.074788 -0.054722
v -0.106617 0.209253 -0.077301
v -0.221440 0.298555 -0.123521
v 0.114167 0.073591 -0.048853
v -0.113315 0.073591 -0.067118
v -0.029089 0.372824 0.350655
v 0.119135 0.240121 0.026674
v -0.130269 0.240121 0.006650
v -0.115741 0.350718 0.161602
v 0.080070 0.350718 0.177323
v -0.002336 0.110581 -0.021271
v -0.007176 0.245046 0.039003
v -0.017082 0.334348 0.162383
vt 0.106497 0.008954
vt 0.153764 0.135493
vt 0.092844 0.152909
vt 0.091576 0.443084
vt 0.008953 0.316207
vt 0.088657 0.298827
vt 0.030946 0.135493
vt 0.273590 0.008954
vt 0.316395 0.152388
vt 0.259980 0.162962
vt 0.261019 0.453007
vt 0.183293 0.323596
vt 0.256600 0.312054
vt 0.202730 0.152388
vt 0.967203 0.927906
vt 0.926545 0.802328
vt 0.967203 0.783464
vt 0.412849 0.359332
vt 0.345975 0.259269
vt 0.409892 0.244828
vt 0.363619 0.113106
vt 0.413263 0.127107
vt 0.594647 0.838053
vt 0.489139 0.738993
vt 0.541544 0.719226
vt 0.680486 0.276886
vt 0.596722 0.165117
vt 0.656825 0.149355
vt 0.636470 0.008953
vt 0.680486 0.019780
vt 0.231652 0.877902
vt 0.231652 0.991047
vt 0.183293 0.979402
vt 0.578816 0.366992
vt 0.489139 0.279201
vt 0.534642 0.263421
vt 0.496489 0.138949
vt 0.533197 0.143498
vt 0.131544 0.868331
vt 0.160275 0.975266
vt 0.107148 0.975266
vt 0.543359 0.635749
vt 0.489139 0.538576
vt 0.540976 0.527219
vt 0.908638 0.890515
vt 0.846327 0.770361
vt 0.888397 0.780793
vt 0.724837 0.950999
vt 0.791216 0.857523
vt 0.791216 0.989726
vt 0.376512 0.841119
vt 0.469863 0.731074
vt 0.471232 0.830222
vt 0.366014 0.743021
vt 0.471232 0.650266
vt 0.366014 0.975893
vt 0.437500 0.859025
vt 0.437500 0.978403
vt 0.801120 0.213122
vt 0.698393 0.309317
vt 0.702239 0.210705
vt 0.806803 0.311967
vt 0.721689 0.390121
vt 0.008953 0.975054
vt 0.021631 0.868332
vt 0.089242 0.975054
vt 0.737698 0.839616
vt 0.824301 0.730885
vt 0.828420 0.830884
vt 0.750329 0.649283
vt 0.828420 0.641767
vt 0.165386 0.316207
vt 0.162126 0.494864
vt 0.328068 0.323596
vt 0.326780 0.485457
vt 0.681546 0.576196
vt 0.665753 0.724599
vt 0.624726 0.566344
vt 0.706930 0.452033
vt 0.659520 0.416897
vt 0.891557 0.154023
vt 0.865824 0.273402
vt 0.835224 0.141443
vt 0.908240 0.039597
vt 0.859185 0.008953
vt 0.594647 0.696439
vt 0.578816 0.008953
vt 0.461960 0.113106
vt 0.471232 0.259269
vt 0.469399 0.401439
vt 0.424896 0.008953
vt 0.561345 0.416897
vt 0.606820 0.538576
vt 0.604720 0.678532
vt 0.908638 0.641767
vt 0.268678 0.560283
vt 0.183293 0.685590
vt 0.196481 0.512860
vt 0.768800 0.057585
vt 0.698393 0.192798
vt 0.708846 0.043766
vt 0.929621 0.119969
vt 0.984965 0.008953
vt 0.984965 0.145636
vt 0.081730 0.643740
vt 0.144438 0.523054
vt 0.138719 0.680308
vt 0.246346 0.833428
vt 0.307838 0.725191
vt 0.302805 0.859995
vt 0.075278 0.806891
vt 0.136041 0.710281
vt 0.130175 0.850425
vt 0.942983 0.516806
vt 0.851882 0.416897
vt 0.940342 0.416897
vt 0.835224 0.396011
vt 0.934817 0.293076
vt 0.934817 0.388575
vt 0.489139 0.855960
vt 0.570275 0.966333
vt 0.496271 0.954117
vt 0.333335 0.675178
vt 0.333335 0.503364
vt 0.817317 0.154631
vt 0.817317 0.008953
vt 0.008953 0.523054
vt 0.015143 0.680308
vt 0.183293 0.725191
vt 0.189207 0.859995
vt 0.979230 0.765557
vt 0.929460 0.654730
vt 0.979230 0.641767
vt 0.008953 0.710281
vt 0.014257 0.850425
vt 0.687892 0.742506
vt 0.673475 0.797709
vt 0.640974 0.789839
vt 0.670378 0.897803
vt 0.706712 0.859096
vt 0.706712 0.918316
vt 0.667468 0.849797
vt 0.705342 0.794015
vt 0.624726 0.853777
vt 0.631933 0.913464
vt 0.627656 0.391555
vt 0.596722 0.391555
vt 0.618493 0.335912
vt 0.786150 0.416897
vt 0.779604 0.480950
vt 0.738783 0.473840
vt 0.780193 0.602084
vt 0.828092 0.550850
vt 0.827134 0.623860
vt 0.777301 0.543132
vt 0.819849 0.473841
vt 0.724837 0.550850
vt 0.732956 0.623860
vt 0.878415 0.613162
vt 0.845998 0.607265
vt 0.878415 0.534713
vt 0.435718 0.419346
vt 0.425360 0.489223
vt 0.384990 0.480881
vt 0.425199 0.608745
vt 0.471232 0.563126
vt 0.471232 0.632360
vt 0.421585 0.552698
vt 0.464964 0.484077
vt 0.369370 0.559055
vt 0.378324 0.628646
vt 0.019444 0.494864
vt 0.194730 0.485457
vt 0.355151 0.401439
vt 0.629770 0.318005
vt 0.544106 0.398990
vt 0.497383 0.678532
vt 0.863237 0.912175
vt 0.389699 0.659646
vt 0.806803 0.392201
vt 0.724837 0.740458
vt 0.706930 0.708742
vt 0.908240 0.267015
vt 0.515517 0.432862
vt 0.263353 0.699385
vt 0.764249 0.185906
vt 0.926147 0.011057
vt 0.081535 0.512771
vt 0.245966 0.717292
vt 0.075496 0.698215
vt 0.845998 0.516806
vt 0.835224 0.291308
vt 0.570275 0.869352
vt 0.926545 0.752480
vn 0.2319 0.9536 0.1921
vn -0.2283 0.3993 0.8879
vn -0.1462 0.8022 0.5788
vn -0.2448 0.9679 0.0574
vn -0.7447 0.4051 -0.5303
vn -0.4821 0.8070 -0.3411
vn 0.0032 0.9530 -0.3029
vn 0.8366 0.3991 -0.3752
vn 0.5439 0.8021 -0.2468
vn 0.0044 0.9717 -0.2361
vn 0.4439 0.6815 0.5818
vn 0.1444 0.9540 0.2628
vn -0.1286 0.9773 0.1686
vn 0.0219 0.6852 -0.7280
vn 0.0461 0.9561 -0.2894
vn 0.2840 0.9579 0.0419
vn -0.6216 0.6722 0.4021
vn -0.2926 0.9487 0.1202
vn -0.0680 0.9755 -0.2093
vn 0.2048 0.7484 0.6308
vn 0.0619 0.9797 0.1907
vn -0.2116 0.9755 0.0604
vn 0.6378 0.7484 -0.1819
vn 0.1928 0.9797 -0.0550
vn 0.2200 0.9755 -0.0070
vn -0.6629 0.7484 0.0212
vn -0.2004 0.9797 0.0064
vn 0.1184 0.7990 0.5895
vn 0.2439 0.4061 0.8807
vn -0.2304 0.9530 0.1968
vn -0.5651 0.8043 -0.1837
vn -0.8807 0.4101 -0.2371
vn -0.1113 0.9674 -0.2277
vn 0.2834 0.9538 0.0998
vn 0.6750 0.6855 0.2730
vn -0.1297 0.9556 -0.2645
vn -0.2935 0.6888 -0.6629
vn -0.2240 0.9725 0.0635
vn 0.1793 0.9779 0.1077
vn 0.3850 0.7988 -0.4622
vn 0.5326 0.4060 -0.7427
vn 0.2990 0.9525 0.0585
vn -0.0733 0.9493 0.3059
vn -0.2127 0.6770 0.7046
vn -0.1142 0.9592 -0.2588
vn 0.2431 -0.4062 -0.8809
vn 0.7357 -0.4101 0.5390
vn -0.8403 -0.4060 0.3592
vn -0.4301 -0.6855 -0.5874
vn -0.0343 -0.6888 0.7241
vn 0.6271 -0.6771 -0.3850
vn -0.2048 -0.7484 -0.6308
vn -0.6378 -0.7484 0.1819
vn 0.6629 -0.7484 -0.0212
vn -0.2439 -0.4061 -0.8807
vn 0.8807 -0.4101 0.2371
vn -0.6750 -0.6855 -0.2730
vn 0.2935 -0.6888 0.6629
vn -0.5326 -0.4060 0.7427
vn 0.2127 -0.6770 -0.7046
vn 0.0507 -0.9695 -0.2396
vn 0.7792 -0.4137 -0.4709
vn 0.4958 -0.8025 -0.3319
vn 0.3983 -0.8025 -0.4443
vn 0.5755 -0.4137 -0.7055
vn 0.2472 -0.9688 -0.0203
vn -0.2364 -0.9695 0.0641
vn -0.7743 -0.4137 -0.4789
vn -0.5214 -0.8025 -0.2900
vn -0.5770 -0.8025 -0.1519
vn -0.8902 -0.4137 -0.1906
vn -0.1308 -0.9688 -0.2108
vn 0.1316 -0.9695 0.2065
vn -0.2264 -0.4137 0.8818
vn -0.1214 -0.8025 0.5842
vn 0.0269 -0.8025 0.5961
vn 0.0833 -0.4137 0.9066
vn -0.1622 -0.9688 0.1876
vn -0.2431 0.4062 0.8809
vn -0.1181 0.7991 0.5895
vn -0.7357 0.4101 -0.5390
vn -0.4967 0.8043 -0.3262
vn 0.8403 0.4060 -0.3592
vn 0.5346 0.7989 -0.2757
vn 0.4301 0.6855 0.5874
vn 0.1662 0.9538 0.2503
vn 0.0343 0.6888 -0.7241
vn 0.0254 0.9556 -0.2934
vn -0.6271 0.6771 0.3850
vn -0.2769 0.9493 0.1487
vn 0.1468 0.8022 0.5788
vn 0.2290 0.3992 0.8878
vn -0.5677 0.8070 -0.1629
vn -0.8795 0.4051 -0.2497
vn 0.2903 0.9539 0.0755
vn 0.6729 0.6815 0.2879
vn -0.1476 0.9561 -0.2533
vn -0.2832 0.6852 -0.6710
vn 0.3586 0.8020 -0.4777
vn 0.5475 0.3990 -0.7355
vn -0.0415 0.9486 0.3139
vn -0.2307 0.6721 0.7036
vn 0.2283 -0.3993 -0.8879
vn 0.7447 -0.4051 0.5303
vn -0.8366 -0.3991 0.3752
vn -0.4439 -0.6815 -0.5818
vn -0.0219 -0.6852 0.7280
vn 0.6216 -0.6722 -0.4021
vn -0.2290 -0.3992 -0.8878
vn 0.8795 -0.4051 0.2497
vn -0.6729 -0.6815 -0.2879
vn 0.2832 -0.6852 0.6710
vn -0.5475 -0.3990 0.7355
vn 0.2307 -0.6721 -0.7036
vn 0.7768 -0.4058 -0.4817
vn 0.5004 -0.8075 -0.3122
vn 0.3793 -0.8075 -0.4518
vn 0.5859 -0.4058 -0.7015
vn -0.7828 -0.4058 -0.4718
vn -0.5060 -0.8075 -0.3031
vn -0.5750 -0.8075 -0.1317
vn -0.8915 -0.4058 -0.2017
vn -0.2171 -0.4058 0.8878
vn -0.1385 -0.8075 0.5734
vn 0.0456 -0.8075 0.5881
vn 0.0731 -0.4058 0.9111
s off
f 3/1/1 7/2/1 66/3/1
f 64/4/2 5/5/2 65/6/2
f 65/6/3 6/7/3 66/3/3
f 10/8/4 14/9/4 69/10/4
f 67/11/5 12/12/5 68/13/5
f 68/13/6 13/14/6 69/10/6
f 17/15/7 21/16/7 78/17/7
f 76/18/8 19/19/8 77/20/8
f 77/20/9 20/21/9 78/22/9
f 24/23/10 28/24/10 72/25/10
f 70/26/11 26/27/11 71/28/11
f 71/28/12 27/29/12 72/30/12
f 31/31/13 35/32/13 75/33/13
f 73/34/14 33/35/14 74/36/14
f 74/36/15 34/37/15 75/38/15
f 38/39/16 42/40/16 81/41/16
f 79/42/17 40/43/17 80/44/17
f 80/45/18 41/46/18 81/47/18
f 48/48/19 45/49/19 49/50/19
f 44/51/20 46/52/20 43/53/20
f 47/54/21 49/55/21 46/52/21
f 55/56/22 52/57/22 56/58/22
f 51/59/23 53/60/23 50/61/23
f 54/62/24 56/63/24 53/60/24
f 62/64/25 59/65/25 63/66/25
f 58/67/26 60/68/26 57/69/26
f 60/68/27 62/70/27 63/71/27
f 65/6/28 7/2/28 4/72/28
f 64/4/29 4/72/29 1/73/29
f 6/7/30 3/1/30 66/3/30
f 68/13/31 14/9/31 11/74/31
f 67/11/32 11/74/32 8/75/32
f 13/14/33 10/8/33 69/10/33
f 71/76/34 28/77/34 25/78/34
f 70/79/35 25/78/35 22/80/35
f 74/81/36 35/82/36 32/83/36
f 73/84/37 32/83/37 29/85/37
f 27/86/38 24/23/38 72/25/38
f 34/37/39 31/87/39 75/38/39
f 77/20/40 21/88/40 18/89/40
f 76/18/41 18/89/41 15/90/41
f 20/21/42 17/91/42 78/22/42
f 80/44/43 42/92/43 39/93/43
f 79/42/44 39/93/44 36/94/44
f 41/46/45 38/95/45 81/47/45
f 118/96/46 85/97/46 83/98/46
f 120/99/47 89/100/47 87/101/47
f 126/102/48 93/103/48 91/104/48
f 122/105/49 97/106/49 95/107/49
f 124/108/50 101/109/50 99/110/50
f 128/111/51 105/112/51 103/113/51
f 108/114/52 107/115/52 106/116/52
f 112/117/53 111/118/53 110/119/53
f 116/120/54 115/121/54 114/122/54
f 84/123/55 118/96/55 82/124/55
f 88/125/56 120/99/56 86/126/56
f 96/127/57 122/105/57 94/128/57
f 100/129/58 124/108/58 98/130/58
f 92/131/59 126/132/59 90/133/59
f 104/134/60 128/111/60 102/135/60
f 132/136/61 139/137/61 136/138/61
f 137/139/62 134/140/62 131/141/62
f 138/142/63 135/143/63 134/140/63
f 136/138/64 138/142/64 133/144/64
f 133/144/65 137/139/65 130/145/65
f 135/146/66 139/147/66 132/148/66
f 142/149/67 149/150/67 146/151/67
f 147/152/68 144/153/68 141/154/68
f 148/155/69 145/156/69 144/153/69
f 146/151/70 148/155/70 143/157/70
f 143/157/71 147/152/71 140/158/71
f 145/159/72 149/160/72 142/161/72
f 152/162/73 159/163/73 156/164/73
f 157/165/74 154/166/74 151/167/74
f 158/168/75 155/169/75 154/166/75
f 156/164/76 158/168/76 153/170/76
f 153/170/77 157/165/77 150/171/77
f 155/169/78 159/163/78 152/162/78
f 64/4/79 2/172/79 5/5/79
f 65/6/80 5/5/80 6/7/80
f 67/11/81 9/173/81 12/12/81
f 68/13/82 12/12/82 13/14/82
f 76/18/83 16/174/83 19/19/83
f 77/20/84 19/19/84 20/21/84
f 70/26/85 23/175/85 26/27/85
f 71/28/86 26/27/86 27/29/86
f 73/34/87 30/176/87 33/35/87
f 74/36/88 33/35/88 34/37/88
f 79/42/89 37/177/89 40/43/89
f 80/45/90 40/178/90 41/46/90
f 44/51/20 47/54/20 46/52/20
f 47/54/21 48/179/21 49/55/21
f 51/59/23 54/62/23 53/60/23
f 54/62/24 55/180/24 56/63/24
f 58/67/26 61/181/26 60/68/26
f 60/68/27 61/181/27 62/70/27
f 65/6/91 66/3/91 7/2/91
f 64/4/92 65/6/92 4/72/92
f 68/13/93 69/10/93 14/9/93
f 67/11/94 68/13/94 11/74/94
f 71/76/95 72/182/95 28/77/95
f 70/79/96 71/76/96 25/78/96
f 74/81/97 75/183/97 35/82/97
f 73/84/98 74/81/98 32/83/98
f 77/20/99 78/22/99 21/88/99
f 76/18/100 77/20/100 18/89/100
f 80/44/101 81/184/101 42/92/101
f 79/42/102 80/44/102 39/93/102
f 118/96/103 119/185/103 85/97/103
f 120/99/104 121/186/104 89/100/104
f 126/102/105 127/187/105 93/103/105
f 122/105/106 123/188/106 97/106/106
f 124/108/107 125/189/107 101/109/107
f 128/111/108 129/190/108 105/112/108
f 108/114/52 109/191/52 107/115/52
f 112/117/53 113/192/53 111/118/53
f 116/120/54 117/193/54 115/121/54
f 84/123/109 119/185/109 118/96/109
f 88/125/110 121/186/110 120/99/110
f 96/127/111 123/188/111 122/105/111
f 100/129/112 125/189/112 124/108/112
f 92/131/113 127/194/113 126/132/113
f 104/134/114 129/190/114 128/111/114
f 137/139/115 138/142/115 134/140/115
f 138/142/116 139/137/116 135/143/116
f 136/138/117 139/137/117 138/142/117
f 133/144/118 138/142/118 137/139/118
f 147/152/119 148/155/119 144/153/119
f 148/155/120 149/150/120 145/156/120
f 146/151/121 149/150/121 148/155/121
f 143/157/122 148/155/122 147/152/122
f 157/165/123 158/168/123 154/166/123
f 158/168/124 159/163/124 155/169/124
f 156/164/125 159/163/125 158/168/125
f 153/170/126 158/168/126 157/165/126
