# Blender v2.91.2 OBJ File: 'sail.blend'
# www.blender.org
o Cube
v -2.827930 -4.150576 0.380854
v 2.827930 -4.150576 0.380854
v -2.827930 0.092188 0.380854
v 2.827930 0.092188 0.380854
v -2.827930 -2.029193 1.051280
v 2.827930 -2.029193 1.051280
v -2.827930 -3.089885 0.914251
v 2.827930 -3.089885 0.914251
v 2.827930 -0.968503 0.914251
v -2.827930 -0.968503 0.914251
v 2.827930 -2.559539 1.005354
v -2.827930 -2.559539 1.005354
v -2.827930 -1.498848 1.005354
v 2.827930 -1.498848 1.005354
v 2.827930 -0.438157 0.705193
v -2.827930 -0.438157 0.705193
v -2.827930 -3.620230 0.705193
v 2.827930 -3.620230 0.705193
v -1.992618 -4.150576 0.380854
v -1.481308 -4.150576 0.380854
v -1.643440 -3.620230 0.705193
v -1.768003 -3.620230 0.705193
v -1.702219 -3.448654 0.772827
v 0.866039 -4.150576 0.380854
v 1.374147 -4.150576 0.380854
v 1.501988 -4.150576 0.380854
v 1.729809 -4.150576 0.380854
v 1.234496 -3.620230 0.705193
v 1.015362 -3.620230 0.705193
v 1.130580 -3.214610 0.865085
v 1.608775 -3.844272 0.568178
vt 1.000000 0.875000
vt 0.000000 1.000000
vt 0.000000 0.875000
vt 1.000000 0.375000
vt 0.000000 0.500000
vt 0.000000 0.375000
vt 0.699895 0.220603
vt 1.000000 0.250000
vt 0.000000 0.250000
vt 1.000000 0.625000
vt 0.000000 0.750000
vt 0.000000 0.625000
vt 1.000000 0.500000
vt 1.000000 0.750000
vt 0.147690 0.000000
vt 0.000000 0.125000
vt 0.000000 0.000000
vt 0.238093 0.000000
vt 0.679524 0.125000
vt 0.209427 0.125000
vt 1.000000 0.125000
vt 0.718268 0.125000
vt 0.784444 0.072194
vt 1.000000 1.000000
vt 0.187403 0.125000
vt 0.199035 0.165440
vt 0.653122 0.000000
vt 0.742960 0.000000
vt 0.765563 0.000000
vt 0.805844 0.000000
vt 1.000000 0.000000
vn 0.0000 0.5217 0.8531
vn 0.0000 -0.0863 0.9963
vn 0.0000 -0.3667 0.9303
vn 0.0000 0.1693 0.9856
vn 0.0000 -0.1693 0.9856
vn 0.0000 0.0863 0.9963
vn 0.0000 0.3667 0.9303
vn 0.0000 -0.5217 0.8531
s off
f 15/1/1 3/2/1 16/3/1
f 11/4/2 5/5/2 12/6/2
f 30/7/3 8/8/3 7/9/3
f 14/10/4 10/11/4 13/12/4
f 8/8/5 12/6/5 7/9/5
f 6/13/6 13/12/6 5/5/6
f 9/14/7 16/3/7 10/11/7
f 19/15/8 17/16/8 1/17/8
f 20/18/8 29/19/8 21/20/8
f 18/21/8 28/22/8 31/23/8
f 15/1/1 4/24/1 3/2/1
f 11/4/2 6/13/2 5/5/2
f 7/9/3 17/16/3 22/25/3
f 23/26/3 21/20/3 29/19/3
f 7/9/3 22/25/3 23/26/3
f 28/22/3 18/21/3 8/8/3
f 23/26/3 29/19/3 30/7/3
f 30/7/3 28/22/3 8/8/3
f 7/9/3 23/26/3 30/7/3
f 14/10/4 9/14/4 10/11/4
f 8/8/5 11/4/5 12/6/5
f 6/13/6 14/10/6 13/12/6
f 9/14/7 15/1/7 16/3/7
f 19/15/8 22/25/8 17/16/8
f 20/18/8 24/27/8 29/19/8
f 28/22/8 25/28/8 31/23/8
f 25/28/8 26/29/8 31/23/8
f 31/23/8 27/30/8 18/21/8
f 27/30/8 2/31/8 18/21/8
o Cube.001
v -2.827930 -4.150576 0.380854
v 2.827930 -4.150576 0.380854
v -2.827930 0.092188 0.380854
v 2.827930 0.092188 0.380854
v -2.827930 -2.029193 1.051280
v 2.827930 -2.029193 1.051280
v -2.827930 -3.089885 0.914251
v 2.827930 -3.089885 0.914251
v 2.827930 -0.968503 0.914251
v -2.827930 -0.968503 0.914251
v 2.827930 -2.559539 1.005354
v -2.827930 -2.559539 1.005354
v -2.827930 -1.498848 1.005354
v 2.827930 -1.498848 1.005354
v 2.827930 -0.438157 0.705193
v -2.827930 -0.438157 0.705193
v -2.827930 -3.620230 0.705193
v 2.827930 -3.620230 0.705193
v -1.992618 -4.150576 0.380854
v -1.481308 -4.150576 0.380854
v -1.643440 -3.620230 0.705193
v -1.768003 -3.620230 0.705193
v -1.702219 -3.448654 0.772827
v 0.866039 -4.150576 0.380854
v 1.374147 -4.150576 0.380854
v 1.501988 -4.150576 0.380854
v 1.729809 -4.150576 0.380854
v 1.234496 -3.620230 0.705193
v 1.015362 -3.620230 0.705193
v 1.130580 -3.214610 0.865085
v 1.608775 -3.844272 0.568178
vt 0.000000 1.000000
vt 1.000000 0.875000
vt 0.000000 0.875000
vt 0.000000 0.500000
vt 1.000000 0.375000
vt 0.000000 0.375000
vt 0.000000 0.250000
vt 0.699895 0.220603
vt 0.199035 0.165440
vt 0.000000 0.750000
vt 1.000000 0.625000
vt 0.000000 0.625000
vt 1.000000 0.250000
vt 1.000000 0.500000
vt 1.000000 0.750000
vt 0.000000 0.125000
vt 0.147690 0.000000
vt 0.000000 0.000000
vt 0.679524 0.125000
vt 0.238093 0.000000
vt 0.209427 0.125000
vt 0.718268 0.125000
vt 0.784444 0.072194
vt 0.742960 0.000000
vt 1.000000 1.000000
vt 0.187403 0.125000
vt 1.000000 0.125000
vt 0.653122 0.000000
vt 1.000000 0.000000
vt 0.805844 0.000000
vt 0.765563 0.000000
vn 0.0000 -0.5217 -0.8531
vn 0.0000 0.0863 -0.9963
vn 0.0000 0.3667 -0.9303
vn 0.0000 -0.1693 -0.9856
vn 0.0000 0.1693 -0.9856
vn 0.0000 -0.0863 -0.9963
vn 0.0000 -0.3667 -0.9303
vn 0.0000 0.5217 -0.8531
s off
f 34/32/9 46/33/9 47/34/9
f 36/35/10 42/36/10 43/37/10
f 38/38/11 61/39/11 54/40/11
f 41/41/12 45/42/12 44/43/12
f 43/37/13 39/44/13 38/38/13
f 44/43/14 37/45/14 36/35/14
f 47/34/15 40/46/15 41/41/15
f 48/47/16 50/48/16 32/49/16
f 60/50/16 51/51/16 52/52/16
f 59/53/16 62/54/16 56/55/16
f 34/32/9 35/56/9 46/33/9
f 36/35/10 37/45/10 42/36/10
f 53/57/11 48/47/11 38/38/11
f 39/44/11 49/58/11 59/53/11
f 61/39/11 60/50/11 54/40/11
f 60/50/11 52/52/11 54/40/11
f 39/44/11 59/53/11 61/39/11
f 54/40/11 53/57/11 38/38/11
f 38/38/11 39/44/11 61/39/11
f 41/41/12 40/46/12 45/42/12
f 43/37/13 42/36/13 39/44/13
f 44/43/14 45/42/14 37/45/14
f 47/34/15 46/33/15 40/46/15
f 48/47/16 53/57/16 50/48/16
f 60/50/16 55/59/16 51/51/16
f 59/53/16 49/58/16 62/54/16
f 49/58/16 33/60/16 58/61/16
f 62/54/16 49/58/16 58/61/16
f 62/54/16 57/62/16 56/55/16
